<svg width="34" height="35" viewBox="0 0 34 35" fill="none" xmlns="http://www.w3.org/2000/svg">
<g clip-path="url(#clip0_17_3022)">
<mask id="mask0_17_3022" style="mask-type:alpha" maskUnits="userSpaceOnUse" x="0" y="0" width="34" height="35">
<path d="M17 34.5C26.3888 34.5 34 26.8888 34 17.5C34 8.11116 26.3888 0.5 17 0.5C7.61116 0.5 0 8.11116 0 17.5C0 26.8888 7.61116 34.5 17 34.5Z" fill="white"/>
</mask>
<g mask="url(#mask0_17_3022)">
<mask id="mask1_17_3022" style="mask-type:alpha" maskUnits="userSpaceOnUse" x="-6" y="0" width="46" height="35">
<path d="M39.6666 0.5H-5.66675V34.5H39.6666V0.5Z" fill="white"/>
</mask>
<g mask="url(#mask1_17_3022)">
<path d="M5.6665 0.5H39.6665V34.5H5.6665V0.5Z" fill="#EF0000"/>
<path d="M-5.66675 0.5H11.3333V34.5H-5.66675V0.5Z" fill="#2F8D00"/>
<mask id="mask2_17_3022" style="mask-type:alpha" maskUnits="userSpaceOnUse" x="0" y="6" width="23" height="23">
<path d="M11.1983 28.5602C5.16266 28.5602 0.269775 23.6084 0.269775 17.5C0.269775 11.3916 5.16266 6.43976 11.1983 6.43976C17.234 6.43976 22.1269 11.3916 22.1269 17.5C22.1269 23.6084 17.234 28.5602 11.1983 28.5602Z" fill="white"/>
</mask>
<g mask="url(#mask2_17_3022)">
<path d="M10.5237 6.16666H11.9403V9.98996H10.5237V6.16666Z" fill="#FFE017"/>
</g>
<mask id="mask3_17_3022" style="mask-type:alpha" maskUnits="userSpaceOnUse" x="0" y="6" width="23" height="23">
<path d="M11.1983 28.5602C5.16266 28.5602 0.269775 23.6084 0.269775 17.5C0.269775 11.3916 5.16266 6.43976 11.1983 6.43976C17.234 6.43976 22.1269 11.3916 22.1269 17.5C22.1269 23.6084 17.234 28.5602 11.1983 28.5602Z" fill="white"/>
</mask>
<g mask="url(#mask3_17_3022)">
<path d="M10.5237 25.2831H11.9403V28.8333H10.5237V25.2831Z" fill="#FFE017"/>
</g>
<mask id="mask4_17_3022" style="mask-type:alpha" maskUnits="userSpaceOnUse" x="0" y="6" width="23" height="23">
<path d="M11.1983 28.5602C5.16266 28.5602 0.269775 23.6084 0.269775 17.5C0.269775 11.3916 5.16266 6.43976 11.1983 6.43976C17.234 6.43976 22.1269 11.3916 22.1269 17.5C22.1269 23.6084 17.234 28.5602 11.1983 28.5602Z" fill="white"/>
</mask>
<g mask="url(#mask4_17_3022)">
<path d="M0.445392 18.072L0.0493164 17.0558C4.41999 15.311 7.71879 14.1857 9.95711 13.6786C13.2411 12.9345 16.8495 12.384 20.7824 12.0267L20.8789 13.1147C16.9911 13.4679 13.429 14.0114 10.1929 14.7446C8.02122 15.2366 4.76825 16.3462 0.445392 18.072Z" fill="#FFE017"/>
</g>
<mask id="mask5_17_3022" style="mask-type:alpha" maskUnits="userSpaceOnUse" x="0" y="6" width="23" height="23">
<path d="M11.1983 28.5602C5.16266 28.5602 0.269775 23.6084 0.269775 17.5C0.269775 11.3916 5.16266 6.43976 11.1983 6.43976C17.234 6.43976 22.1269 11.3916 22.1269 17.5C22.1269 23.6084 17.234 28.5602 11.1983 28.5602Z" fill="white"/>
</mask>
<g mask="url(#mask5_17_3022)">
<path d="M21.4495 11.3572L21.1281 12.4C17.8248 11.3572 15.134 10.9089 13.0656 11.0477L12.9941 9.95777C15.2149 9.8087 18.03 10.2777 21.4495 11.3572Z" fill="#FFE017"/>
</g>
<mask id="mask6_17_3022" style="mask-type:alpha" maskUnits="userSpaceOnUse" x="0" y="6" width="23" height="23">
<path d="M11.1983 28.5602C5.16266 28.5602 0.269775 23.6084 0.269775 17.5C0.269775 11.3916 5.16266 6.43976 11.1983 6.43976C17.234 6.43976 22.1269 11.3916 22.1269 17.5C22.1269 23.6084 17.234 28.5602 11.1983 28.5602Z" fill="white"/>
</mask>
<g mask="url(#mask6_17_3022)">
<path d="M22.5925 17.188L21.9819 18.0888C20.298 16.9197 18.2233 16.3324 15.7439 16.3324V15.24C18.4319 15.24 20.7194 15.8876 22.5925 17.188Z" fill="#FFE017"/>
</g>
<mask id="mask7_17_3022" style="mask-type:alpha" maskUnits="userSpaceOnUse" x="0" y="6" width="23" height="23">
<path d="M11.1983 28.5602C5.16266 28.5602 0.269775 23.6084 0.269775 17.5C0.269775 11.3916 5.16266 6.43976 11.1983 6.43976C17.234 6.43976 22.1269 11.3916 22.1269 17.5C22.1269 23.6084 17.234 28.5602 11.1983 28.5602Z" fill="white"/>
</mask>
<g mask="url(#mask7_17_3022)">
<path d="M21.6779 17.515L21.9569 18.5702C18.3265 19.5535 14.9181 20.1115 11.7314 20.2428C8.52271 20.3751 4.78291 19.8152 0.508789 18.5674L0.807966 17.5178C4.97821 18.7353 8.60578 19.2784 11.6875 19.1514C14.7911 19.0234 18.1214 18.4783 21.6779 17.515Z" fill="#FFE017"/>
</g>
<mask id="mask8_17_3022" style="mask-type:alpha" maskUnits="userSpaceOnUse" x="0" y="6" width="23" height="23">
<path d="M11.1983 28.5602C5.16266 28.5602 0.269775 23.6084 0.269775 17.5C0.269775 11.3916 5.16266 6.43976 11.1983 6.43976C17.234 6.43976 22.1269 11.3916 22.1269 17.5C22.1269 23.6084 17.234 28.5602 11.1983 28.5602Z" fill="white"/>
</mask>
<g mask="url(#mask8_17_3022)">
<path d="M21.2666 22.6508L19.5605 24.4C16.3182 21.1607 13.4637 18.8445 11.0146 17.4528C8.52365 16.0373 5.27525 14.6 1.27441 13.1466L2.09487 10.8333C6.2137 12.3295 9.58159 13.8197 12.2036 15.3096C14.8674 16.8234 17.8826 19.27 21.2666 22.6508Z" fill="#FFE017"/>
</g>
<mask id="mask9_17_3022" style="mask-type:alpha" maskUnits="userSpaceOnUse" x="0" y="6" width="23" height="23">
<path d="M11.1983 28.5602C5.16266 28.5602 0.269775 23.6084 0.269775 17.5C0.269775 11.3916 5.16266 6.43976 11.1983 6.43976C17.234 6.43976 22.1269 11.3916 22.1269 17.5C22.1269 23.6084 17.234 28.5602 11.1983 28.5602Z" fill="white"/>
</mask>
<g mask="url(#mask9_17_3022)">
<path d="M2.06597 23.6417L1.42017 22.7664C1.51035 22.6983 1.67127 22.5846 1.89298 22.4406C2.25904 22.2027 2.66553 21.9653 3.10289 21.7435C4.30749 21.1324 5.51582 20.7509 6.6683 20.7158C6.72467 20.7141 6.78079 20.7132 6.83668 20.7132V21.8056C6.79166 21.8056 6.74634 21.8063 6.70072 21.8077C5.7295 21.8372 4.66294 22.174 3.58656 22.72C3.18536 22.9235 2.81154 23.1419 2.47605 23.3598C2.35928 23.4357 2.25595 23.5058 2.16742 23.5684C2.1158 23.6048 2.08154 23.6299 2.06597 23.6417Z" fill="#FFE017"/>
</g>
<mask id="mask10_17_3022" style="mask-type:alpha" maskUnits="userSpaceOnUse" x="0" y="6" width="23" height="23">
<path d="M11.1983 28.5602C5.16266 28.5602 0.269775 23.6084 0.269775 17.5C0.269775 11.3916 5.16266 6.43976 11.1983 6.43976C17.234 6.43976 22.1269 11.3916 22.1269 17.5C22.1269 23.6084 17.234 28.5602 11.1983 28.5602Z" fill="white"/>
</mask>
<g mask="url(#mask10_17_3022)">
<path d="M2.56714 24.0203L2.83895 22.9632C6.43746 23.9108 9.21169 24.3831 11.1478 24.3831C13.0767 24.3831 15.9477 23.826 19.7422 22.7081L20.0439 23.7569C16.1597 24.9013 13.2006 25.4754 11.1478 25.4754C9.10234 25.4754 6.24672 24.9893 2.56714 24.0203Z" fill="#FFE017"/>
</g>
<mask id="mask11_17_3022" style="mask-type:alpha" maskUnits="userSpaceOnUse" x="0" y="6" width="23" height="23">
<path d="M11.1983 28.5602C5.16266 28.5602 0.269775 23.6084 0.269775 17.5C0.269775 11.3916 5.16266 6.43976 11.1983 6.43976C17.234 6.43976 22.1269 11.3916 22.1269 17.5C22.1269 23.6084 17.234 28.5602 11.1983 28.5602Z" fill="white"/>
</mask>
<g mask="url(#mask11_17_3022)">
<path d="M1.16504 14.2338L2.87506 12.4885L5.37877 15.0012L3.66874 16.7464L1.16504 14.2338Z" fill="#FFE017"/>
</g>
<mask id="mask12_17_3022" style="mask-type:alpha" maskUnits="userSpaceOnUse" x="0" y="6" width="23" height="23">
<path d="M11.1983 28.5602C5.16266 28.5602 0.269775 23.6084 0.269775 17.5C0.269775 11.3916 5.16266 6.43976 11.1983 6.43976C17.234 6.43976 22.1269 11.3916 22.1269 17.5C22.1269 23.6084 17.234 28.5602 11.1983 28.5602Z" fill="white"/>
</mask>
<g mask="url(#mask12_17_3022)">
<path d="M15.3508 22.951L16.6228 20.8572L20.5946 23.3285L19.3226 25.4223L15.3508 22.951Z" fill="#FFE017"/>
</g>
<path d="M11.1983 6.43976C17.234 6.43976 22.1269 11.3916 22.1269 17.5C22.1269 23.6084 17.234 28.5602 11.1983 28.5602C5.16266 28.5602 0.269775 23.6084 0.269775 17.5C0.269775 11.3916 5.16266 6.43976 11.1983 6.43976ZM11.3333 8.07831C6.11725 8.07831 1.88882 12.3577 1.88882 17.6365C1.88882 22.9154 6.11725 27.1948 11.3333 27.1948C16.5493 27.1948 20.7777 22.9154 20.7777 17.6365C20.7777 12.3577 16.5493 8.07831 11.3333 8.07831Z" fill="#F9E813"/>
<path d="M5.18018 10.6791V19.5485C5.76403 23.0591 7.73102 24.8144 11.0811 24.8144C14.4313 24.8144 16.3982 23.0591 16.9821 19.5485V10.6791H5.18018Z" fill="white"/>
<path d="M4.37061 9.85984H17.7916V19.6169L17.7804 19.6844C17.132 23.5826 14.8337 25.6337 11.0811 25.6337C7.3285 25.6337 5.03015 23.5826 4.38183 19.6844L4.37061 19.6169V9.85984Z" fill="#C51918"/>
<path d="M7.44043 12.8401H14.7217V19.1314C14.3615 21.2973 13.1479 22.3803 11.0811 22.3803C9.01419 22.3803 7.80064 21.2973 7.44043 19.1314V12.8401Z" fill="#F7FCFF"/>
<path d="M5.6665 10.5361H6.6906V11.2189H5.6665V10.5361Z" fill="#F9E813"/>
<path d="M5.12671 10.8092H7.0156V11.1506H5.12671V10.8092Z" fill="#060101"/>
<path d="M5.12671 11.0823H6.15081V11.4237H5.12671V11.0823Z" fill="#F9E813"/>
<path d="M6.20605 11.0823H7.23015V11.4237H6.20605V11.0823Z" fill="#F9E813"/>
<path d="M5.12671 11.9016H5.80944V12.9257H5.12671V11.9016Z" fill="#F9E813"/>
<path d="M6.47583 11.9016H7.15856V12.9257H6.47583V11.9016Z" fill="#F9E813"/>
<path d="M5.93628 11.9016H6.27764V12.9257H5.93628V11.9016Z" fill="#F9E813"/>
<path d="M5.12671 11.6285H7.0156V11.9699H5.12671V11.6285Z" fill="#060101"/>
<path d="M5.12671 12.4478H7.0156V12.7892H5.12671V12.4478Z" fill="#060101"/>
<path d="M5.39648 11.3554H5.73785V11.6968H5.39648V11.3554Z" fill="#F9E813"/>
<path d="M6.47583 11.3554H6.8172V11.6968H6.47583V11.3554Z" fill="#F9E813"/>
<path d="M5.93628 11.0823H6.27764V11.7651H5.93628V11.0823Z" fill="#F9E813"/>
<path d="M10.7935 10.5361H11.8176V11.2189H10.7935V10.5361Z" fill="#F9E813"/>
<path d="M10.2537 10.8092H12.1426V11.1506H10.2537V10.8092Z" fill="#060101"/>
<path d="M10.2537 11.0823H11.2778V11.4237H10.2537V11.0823Z" fill="#F9E813"/>
<path d="M11.333 11.0823H12.3571V11.4237H11.333V11.0823Z" fill="#F9E813"/>
<path d="M10.2537 11.9016H10.9364V12.9257H10.2537V11.9016Z" fill="#F9E813"/>
<path d="M11.6028 11.9016H12.2855V12.9257H11.6028V11.9016Z" fill="#F9E813"/>
<path d="M11.0632 11.9016H11.4046V12.9257H11.0632V11.9016Z" fill="#F9E813"/>
<path d="M10.2537 11.6285H12.1426V11.9699H10.2537V11.6285Z" fill="#060101"/>
<path d="M10.2537 12.4478H12.1426V12.7892H10.2537V12.4478Z" fill="#060101"/>
<path d="M10.5234 11.3554H10.8648V11.6968H10.5234V11.3554Z" fill="#F9E813"/>
<path d="M11.6028 11.3554H11.9441V11.6968H11.6028V11.3554Z" fill="#F9E813"/>
<path d="M11.0632 11.0823H11.4046V11.7651H11.0632V11.0823Z" fill="#F9E813"/>
<path d="M15.6506 10.5361H16.6747V11.2189H15.6506V10.5361Z" fill="#F9E813"/>
<path d="M15.1108 10.8092H16.9997V11.1506H15.1108V10.8092Z" fill="#060101"/>
<path d="M15.1108 11.0823H16.1349V11.4237H15.1108V11.0823Z" fill="#F9E813"/>
<path d="M16.1902 11.0823H17.2143V11.4237H16.1902V11.0823Z" fill="#F9E813"/>
<path d="M15.1108 11.9016H15.7936V12.9257H15.1108V11.9016Z" fill="#F9E813"/>
<path d="M16.46 11.9016H17.1427V12.9257H16.46V11.9016Z" fill="#F9E813"/>
<path d="M15.9204 11.9016H16.2618V12.9257H15.9204V11.9016Z" fill="#F9E813"/>
<path d="M15.1108 11.6285H16.9997V11.9699H15.1108V11.6285Z" fill="#060101"/>
<path d="M15.1108 12.4478H16.9997V12.7892H15.1108V12.4478Z" fill="#060101"/>
<path d="M15.3806 11.3554H15.722V11.6968H15.3806V11.3554Z" fill="#F9E813"/>
<path d="M16.46 11.3554H16.8013V11.6968H16.46V11.3554Z" fill="#F9E813"/>
<path d="M15.9204 11.0823H16.2618V11.7651H15.9204V11.0823Z" fill="#F9E813"/>
<path d="M15.6506 15.4518H16.6747V16.1345H15.6506V15.4518Z" fill="#F9E813"/>
<path d="M15.1108 15.7249H16.9997V16.0663H15.1108V15.7249Z" fill="#060101"/>
<path d="M15.1108 15.998H16.1349V16.3394H15.1108V15.998Z" fill="#F9E813"/>
<path d="M16.1902 15.998H17.2143V16.3394H16.1902V15.998Z" fill="#F9E813"/>
<path d="M15.1108 16.8173H15.7936V17.8414H15.1108V16.8173Z" fill="#F9E813"/>
<path d="M16.46 16.8173H17.1427V17.8414H16.46V16.8173Z" fill="#F9E813"/>
<path d="M15.9204 16.8173H16.2618V17.8414H15.9204V16.8173Z" fill="#F9E813"/>
<path d="M15.1108 16.5442H16.9997V16.8855H15.1108V16.5442Z" fill="#060101"/>
<path d="M15.1108 17.3634H16.9997V17.7048H15.1108V17.3634Z" fill="#060101"/>
<path d="M15.3806 16.2711H15.722V16.6124H15.3806V16.2711Z" fill="#F9E813"/>
<path d="M16.46 16.2711H16.8013V16.6124H16.46V16.2711Z" fill="#F9E813"/>
<path d="M15.9204 15.998H16.2618V16.6807H15.9204V15.998Z" fill="#F9E813"/>
<path d="M5.6665 15.4518H6.6906V16.1345H5.6665V15.4518Z" fill="#F9E813"/>
<path d="M5.12671 15.7249H7.0156V16.0663H5.12671V15.7249Z" fill="#060101"/>
<path d="M5.12671 15.998H6.15081V16.3394H5.12671V15.998Z" fill="#F9E813"/>
<path d="M6.20605 15.998H7.23015V16.3394H6.20605V15.998Z" fill="#F9E813"/>
<path d="M5.12671 16.8173H5.80944V17.8414H5.12671V16.8173Z" fill="#F9E813"/>
<path d="M6.47583 16.8173H7.15856V17.8414H6.47583V16.8173Z" fill="#F9E813"/>
<path d="M5.93628 16.8173H6.27764V17.8414H5.93628V16.8173Z" fill="#F9E813"/>
<path d="M5.12671 16.5442H7.0156V16.8855H5.12671V16.5442Z" fill="#060101"/>
<path d="M5.12671 17.3634H7.0156V17.7048H5.12671V17.3634Z" fill="#060101"/>
<path d="M5.39648 16.2711H5.73785V16.6124H5.39648V16.2711Z" fill="#F9E813"/>
<path d="M6.47583 16.2711H6.8172V16.6124H6.47583V16.2711Z" fill="#F9E813"/>
<path d="M5.93628 15.998H6.27764V16.6807H5.93628V15.998Z" fill="#F9E813"/>
<path d="M6.32349 21.6139L6.98176 20.8294L7.50477 21.2683L6.84649 22.0528L6.32349 21.6139Z" fill="#F9E813"/>
<path d="M6.18579 22.2029L7.39995 20.7559L7.66145 20.9753L6.44729 22.4223L6.18579 22.2029Z" fill="#060101"/>
<path d="M6.39502 22.3784L7.0533 21.5939L7.3148 21.8133L6.65652 22.5979L6.39502 22.3784Z" fill="#F9E813"/>
<path d="M7.08887 21.5516L7.74714 20.7671L8.00864 20.9865L7.35037 21.771L7.08887 21.5516Z" fill="#F9E813"/>
<path d="M7.02246 22.905L7.46131 22.382L8.24582 23.0403L7.80696 23.5633L7.02246 22.905Z" fill="#F9E813"/>
<path d="M7.88989 21.8715L8.32874 21.3485L9.11325 22.0068L8.6744 22.5298L7.88989 21.8715Z" fill="#F9E813"/>
<path d="M7.54297 22.2849L7.76239 22.0234L8.5469 22.6817L8.32747 22.9432L7.54297 22.2849Z" fill="#F9E813"/>
<path d="M6.81348 22.7295L8.02763 21.2825L8.28913 21.502L7.07498 22.9489L6.81348 22.7295Z" fill="#060101"/>
<path d="M7.44092 23.2561L8.65507 21.8092L8.91657 22.0286L7.70242 23.4756L7.44092 23.2561Z" fill="#060101"/>
<path d="M6.77759 22.3473L6.99701 22.0858L7.25851 22.3052L7.03909 22.5667L6.77759 22.3473Z" fill="#F9E813"/>
<path d="M7.47144 21.5204L7.69086 21.2589L7.95236 21.4783L7.73294 21.7398L7.47144 21.5204Z" fill="#F9E813"/>
<path d="M6.91528 21.7583L7.13471 21.4968L7.65771 21.9356L7.43829 22.1971L6.91528 21.7583Z" fill="#F9E813"/>
<path d="M15.5525 20.9938L16.2108 21.7783L15.6878 22.2171L15.0295 21.4326L15.5525 20.9938Z" fill="#F9E813"/>
<path d="M14.9963 20.7559L16.2105 22.2029L15.949 22.4223L14.7348 20.9753L14.9963 20.7559Z" fill="#060101"/>
<path d="M14.7871 20.9314L15.4454 21.716L15.1839 21.9354L14.5256 21.1509L14.7871 20.9314Z" fill="#F9E813"/>
<path d="M15.481 21.7583L16.1392 22.5428L15.8777 22.7622L15.2195 21.9777L15.481 21.7583Z" fill="#F9E813"/>
<path d="M14.1597 21.4581L14.5985 21.9811L13.814 22.6394L13.3752 22.1163L14.1597 21.4581Z" fill="#F9E813"/>
<path d="M15.0269 22.4916L15.4657 23.0146L14.6812 23.6729L14.2424 23.1499L15.0269 22.4916Z" fill="#F9E813"/>
<path d="M14.6799 22.0782L14.8994 22.3397L14.1149 22.998L13.8954 22.7365L14.6799 22.0782Z" fill="#F9E813"/>
<path d="M14.3687 21.2825L15.5828 22.7295L15.3213 22.9489L14.1072 21.502L14.3687 21.2825Z" fill="#060101"/>
<path d="M13.7412 21.8092L14.9554 23.2561L14.6939 23.4755L13.4797 22.0286L13.7412 21.8092Z" fill="#060101"/>
<path d="M14.7515 21.3137L14.9709 21.5752L14.7094 21.7946L14.49 21.5331L14.7515 21.3137Z" fill="#F9E813"/>
<path d="M15.4453 22.1405L15.6647 22.402L15.4032 22.6215L15.1838 22.36L15.4453 22.1405Z" fill="#F9E813"/>
<path d="M15.3076 21.5516L15.527 21.8131L15.004 22.2519L14.7846 21.9904L15.3076 21.5516Z" fill="#F9E813"/>
<path d="M12.1241 13.5402V14.9022C12.0316 15.3712 11.7199 15.6056 11.1889 15.6056C10.6579 15.6056 10.3462 15.3712 10.2537 14.9022V13.5402H12.1241ZM10.7933 14.9056C10.6443 14.9056 10.5235 15.0279 10.5235 15.1787C10.5235 15.3295 10.6443 15.4518 10.7933 15.4518C10.9424 15.4518 11.0632 15.3295 11.0632 15.1787C11.0632 15.0279 10.9424 14.9056 10.7933 14.9056ZM11.6029 14.9056C11.4538 14.9056 11.333 15.0279 11.333 15.1787C11.333 15.3295 11.4538 15.4518 11.6029 15.4518C11.7519 15.4518 11.8727 15.3295 11.8727 15.1787C11.8727 15.0279 11.7519 14.9056 11.6029 14.9056ZM11.1981 14.3594C11.0491 14.3594 10.9283 14.4817 10.9283 14.6325C10.9283 14.7834 11.0491 14.9056 11.1981 14.9056C11.3471 14.9056 11.4679 14.7834 11.4679 14.6325C11.4679 14.4817 11.3471 14.3594 11.1981 14.3594ZM10.7933 13.8132C10.6443 13.8132 10.5235 13.9355 10.5235 14.0863C10.5235 14.2372 10.6443 14.3594 10.7933 14.3594C10.9424 14.3594 11.0632 14.2372 11.0632 14.0863C11.0632 13.9355 10.9424 13.8132 10.7933 13.8132ZM11.6029 13.8132C11.4538 13.8132 11.333 13.9355 11.333 14.0863C11.333 14.2372 11.4538 14.3594 11.6029 14.3594C11.7519 14.3594 11.8727 14.2372 11.8727 14.0863C11.8727 13.9355 11.7519 13.8132 11.6029 13.8132Z" fill="#013399"/>
<path d="M12.1241 16.5442V17.9063C12.0316 18.3752 11.7199 18.6096 11.1889 18.6096C10.6579 18.6096 10.3462 18.3752 10.2537 17.9063V16.5442H12.1241ZM10.7933 17.9096C10.6443 17.9096 10.5235 18.0319 10.5235 18.1827C10.5235 18.3336 10.6443 18.4558 10.7933 18.4558C10.9424 18.4558 11.0632 18.3336 11.0632 18.1827C11.0632 18.0319 10.9424 17.9096 10.7933 17.9096ZM11.6029 17.9096C11.4538 17.9096 11.333 18.0319 11.333 18.1827C11.333 18.3336 11.4538 18.4558 11.6029 18.4558C11.7519 18.4558 11.8727 18.3336 11.8727 18.1827C11.8727 18.0319 11.7519 17.9096 11.6029 17.9096ZM11.1981 17.3635C11.0491 17.3635 10.9283 17.4857 10.9283 17.6365C10.9283 17.7874 11.0491 17.9096 11.1981 17.9096C11.3471 17.9096 11.4679 17.7874 11.4679 17.6365C11.4679 17.4857 11.3471 17.3635 11.1981 17.3635ZM10.7933 16.8173C10.6443 16.8173 10.5235 16.9395 10.5235 17.0904C10.5235 17.2412 10.6443 17.3635 10.7933 17.3635C10.9424 17.3635 11.0632 17.2412 11.0632 17.0904C11.0632 16.9395 10.9424 16.8173 10.7933 16.8173ZM11.6029 16.8173C11.4538 16.8173 11.333 16.9395 11.333 17.0904C11.333 17.2412 11.4538 17.3635 11.6029 17.3635C11.7519 17.3635 11.8727 17.2412 11.8727 17.0904C11.8727 16.9395 11.7519 16.8173 11.6029 16.8173Z" fill="#013399"/>
<path d="M14.5528 16.5442V17.9063C14.4603 18.3752 14.1486 18.6096 13.6176 18.6096C13.0867 18.6096 12.7749 18.3752 12.6824 17.9063V16.5442H14.5528ZM13.2221 17.9096C13.073 17.9096 12.9522 18.0319 12.9522 18.1827C12.9522 18.3336 13.073 18.4558 13.2221 18.4558C13.3711 18.4558 13.4919 18.3336 13.4919 18.1827C13.4919 18.0319 13.3711 17.9096 13.2221 17.9096ZM14.0316 17.9096C13.8825 17.9096 13.7617 18.0319 13.7617 18.1827C13.7617 18.3336 13.8825 18.4558 14.0316 18.4558C14.1806 18.4558 14.3014 18.3336 14.3014 18.1827C14.3014 18.0319 14.1806 17.9096 14.0316 17.9096ZM13.6268 17.3635C13.4778 17.3635 13.357 17.4857 13.357 17.6365C13.357 17.7874 13.4778 17.9096 13.6268 17.9096C13.7758 17.9096 13.8967 17.7874 13.8967 17.6365C13.8967 17.4857 13.7758 17.3635 13.6268 17.3635ZM13.2221 16.8173C13.073 16.8173 12.9522 16.9395 12.9522 17.0904C12.9522 17.2412 13.073 17.3635 13.2221 17.3635C13.3711 17.3635 13.4919 17.2412 13.4919 17.0904C13.4919 16.9395 13.3711 16.8173 13.2221 16.8173ZM14.0316 16.8173C13.8825 16.8173 13.7617 16.9395 13.7617 17.0904C13.7617 17.2412 13.8825 17.3635 14.0316 17.3635C14.1806 17.3635 14.3014 17.2412 14.3014 17.0904C14.3014 16.9395 14.1806 16.8173 14.0316 16.8173Z" fill="#013399"/>
<path d="M9.69567 16.5442V17.9063C9.60313 18.3752 9.29139 18.6096 8.76043 18.6096C8.22948 18.6096 7.91773 18.3752 7.8252 17.9063V16.5442H9.69567ZM8.36488 17.9096C8.21585 17.9096 8.09504 18.0319 8.09504 18.1827C8.09504 18.3336 8.21585 18.4558 8.36488 18.4558C8.51391 18.4558 8.63472 18.3336 8.63472 18.1827C8.63472 18.0319 8.51391 17.9096 8.36488 17.9096ZM9.1744 17.9096C9.02537 17.9096 8.90456 18.0319 8.90456 18.1827C8.90456 18.3336 9.02537 18.4558 9.1744 18.4558C9.32343 18.4558 9.44424 18.3336 9.44424 18.1827C9.44424 18.0319 9.32343 17.9096 9.1744 17.9096ZM8.76964 17.3635C8.62061 17.3635 8.4998 17.4857 8.4998 17.6365C8.4998 17.7874 8.62061 17.9096 8.76964 17.9096C8.91867 17.9096 9.03948 17.7874 9.03948 17.6365C9.03948 17.4857 8.91867 17.3635 8.76964 17.3635ZM8.36488 16.8173C8.21585 16.8173 8.09504 16.9395 8.09504 17.0904C8.09504 17.2412 8.21585 17.3635 8.36488 17.3635C8.51391 17.3635 8.63472 17.2412 8.63472 17.0904C8.63472 16.9395 8.51391 16.8173 8.36488 16.8173ZM9.1744 16.8173C9.02537 16.8173 8.90456 16.9395 8.90456 17.0904C8.90456 17.2412 9.02537 17.3635 9.1744 17.3635C9.32343 17.3635 9.44424 17.2412 9.44424 17.0904C9.44424 16.9395 9.32343 16.8173 9.1744 16.8173Z" fill="#013399"/>
<path d="M12.1241 19.5482V20.9103C12.0316 21.3792 11.7199 21.6137 11.1889 21.6137C10.6579 21.6137 10.3462 21.3792 10.2537 20.9103V19.5482H12.1241ZM10.7933 20.9137C10.6443 20.9137 10.5235 21.0359 10.5235 21.1867C10.5235 21.3376 10.6443 21.4598 10.7933 21.4598C10.9424 21.4598 11.0632 21.3376 11.0632 21.1867C11.0632 21.0359 10.9424 20.9137 10.7933 20.9137ZM11.6029 20.9137C11.4538 20.9137 11.333 21.0359 11.333 21.1867C11.333 21.3376 11.4538 21.4598 11.6029 21.4598C11.7519 21.4598 11.8727 21.3376 11.8727 21.1867C11.8727 21.0359 11.7519 20.9137 11.6029 20.9137ZM11.1981 20.3675C11.0491 20.3675 10.9283 20.4897 10.9283 20.6406C10.9283 20.7914 11.0491 20.9137 11.1981 20.9137C11.3471 20.9137 11.4679 20.7914 11.4679 20.6406C11.4679 20.4897 11.3471 20.3675 11.1981 20.3675ZM10.7933 19.8213C10.6443 19.8213 10.5235 19.9436 10.5235 20.0944C10.5235 20.2452 10.6443 20.3675 10.7933 20.3675C10.9424 20.3675 11.0632 20.2452 11.0632 20.0944C11.0632 19.9436 10.9424 19.8213 10.7933 19.8213ZM11.6029 19.8213C11.4538 19.8213 11.333 19.9436 11.333 20.0944C11.333 20.2452 11.4538 20.3675 11.6029 20.3675C11.7519 20.3675 11.8727 20.2452 11.8727 20.0944C11.8727 19.9436 11.7519 19.8213 11.6029 19.8213Z" fill="#013399"/>
</g>
</g>
<mask id="mask13_17_3022" style="mask-type:alpha" maskUnits="userSpaceOnUse" x="0" y="0" width="34" height="35">
<path d="M17 34.5C26.3888 34.5 34 26.8888 34 17.5C34 8.11116 26.3888 0.5 17 0.5C7.61116 0.5 0 8.11116 0 17.5C0 26.8888 7.61116 34.5 17 34.5Z" fill="white"/>
</mask>
<g mask="url(#mask13_17_3022)">
<path d="M37.9666 0.5H-3.96675C-4.90563 0.5 -5.66675 1.26112 -5.66675 2.2V32.8C-5.66675 33.7389 -4.90563 34.5 -3.96675 34.5H37.9666C38.9055 34.5 39.6666 33.7389 39.6666 32.8V2.2C39.6666 1.26112 38.9055 0.5 37.9666 0.5Z" fill="black"/>
<mask id="mask14_17_3022" style="mask-type:alpha" maskUnits="userSpaceOnUse" x="-6" y="0" width="46" height="35">
<path d="M37.9666 0.5H-3.96675C-4.90563 0.5 -5.66675 1.26112 -5.66675 2.2V32.8C-5.66675 33.7389 -4.90563 34.5 -3.96675 34.5H37.9666C38.9055 34.5 39.6666 33.7389 39.6666 32.8V2.2C39.6666 1.26112 38.9055 0.5 37.9666 0.5Z" fill="white"/>
</mask>
<g mask="url(#mask14_17_3022)">
<mask id="mask15_17_3022" style="mask-type:alpha" maskUnits="userSpaceOnUse" x="-6" y="0" width="46" height="35">
<path d="M39.6666 0.5H-5.66675V34.5H39.6666V0.5Z" fill="white"/>
</mask>
<g mask="url(#mask15_17_3022)">
<path d="M39.6666 0.5H-5.66675V34.5H39.6666V0.5Z" fill="#009933"/>
<mask id="mask16_17_3022" style="mask-type:alpha" maskUnits="userSpaceOnUse" x="-6" y="0" width="46" height="35">
<path d="M39.6666 0.5H-5.66675V34.5H39.6666V0.5Z" fill="white"/>
</mask>
<g mask="url(#mask16_17_3022)">
<path d="M16.8962 5.74739L34.1822 17.794L16.6611 29.076L-0.270752 17.5605L16.8962 5.74739Z" fill="black"/>
<path fill-rule="evenodd" clip-rule="evenodd" d="M16.8962 5.74739L34.1822 17.794L16.6611 29.076L-0.270752 17.5605L16.8962 5.74739Z" fill="#FFD221"/>
<path fill-rule="evenodd" clip-rule="evenodd" d="M16.8962 5.74739L34.1822 17.794L16.6611 29.076L-0.270752 17.5605L16.8962 5.74739Z" fill="url(#paint0_linear_17_3022)"/>
<path d="M16.9998 24.8667C20.9119 24.8667 24.0832 21.6954 24.0832 17.7833C24.0832 13.8713 20.9119 10.7 16.9998 10.7C13.0878 10.7 9.9165 13.8713 9.9165 17.7833C9.9165 21.6954 13.0878 24.8667 16.9998 24.8667Z" fill="#2E42A5"/>
<mask id="mask17_17_3022" style="mask-type:alpha" maskUnits="userSpaceOnUse" x="9" y="10" width="16" height="15">
<path d="M16.9998 24.8667C20.9119 24.8667 24.0832 21.6954 24.0832 17.7833C24.0832 13.8713 20.9119 10.7 16.9998 10.7C13.0878 10.7 9.9165 13.8713 9.9165 17.7833C9.9165 21.6954 13.0878 24.8667 16.9998 24.8667Z" fill="white"/>
</mask>
<g mask="url(#mask17_17_3022)">
<path d="M14.7049 21.1408L14.3884 21.3072L14.4489 20.9548L14.1929 20.7053L14.5466 20.6539L14.7049 20.3333L14.8631 20.6539L15.2168 20.7053L14.9608 20.9548L15.0213 21.3072L14.7049 21.1408Z" fill="#F7FCFF"/>
</g>
<mask id="mask18_17_3022" style="mask-type:alpha" maskUnits="userSpaceOnUse" x="9" y="10" width="16" height="15">
<path d="M16.9998 24.8667C20.9119 24.8667 24.0832 21.6954 24.0832 17.7833C24.0832 13.8713 20.9119 10.7 16.9998 10.7C13.0878 10.7 9.9165 13.8713 9.9165 17.7833C9.9165 21.6954 13.0878 24.8667 16.9998 24.8667Z" fill="white"/>
</mask>
<g mask="url(#mask18_17_3022)">
<path d="M17.5381 21.1408L17.2217 21.3072L17.2821 20.9548L17.0261 20.7053L17.3799 20.6539L17.5381 20.3333L17.6963 20.6539L18.0501 20.7053L17.7941 20.9548L17.8545 21.3072L17.5381 21.1408Z" fill="#F7FCFF"/>
</g>
<mask id="mask19_17_3022" style="mask-type:alpha" maskUnits="userSpaceOnUse" x="9" y="10" width="16" height="15">
<path d="M16.9998 24.8667C20.9119 24.8667 24.0832 21.6954 24.0832 17.7833C24.0832 13.8713 20.9119 10.7 16.9998 10.7C13.0878 10.7 9.9165 13.8713 9.9165 17.7833C9.9165 21.6954 13.0878 24.8667 16.9998 24.8667Z" fill="white"/>
</mask>
<g mask="url(#mask19_17_3022)">
<path d="M17.5381 22.8409L17.2217 23.0072L17.2821 22.6549L17.0261 22.4053L17.3799 22.3539L17.5381 22.0334L17.6963 22.3539L18.0501 22.4053L17.7941 22.6549L17.8545 23.0072L17.5381 22.8409Z" fill="#F7FCFF"/>
</g>
<mask id="mask20_17_3022" style="mask-type:alpha" maskUnits="userSpaceOnUse" x="9" y="10" width="16" height="15">
<path d="M16.9998 24.8667C20.9119 24.8667 24.0832 21.6954 24.0832 17.7833C24.0832 13.8713 20.9119 10.7 16.9998 10.7C13.0878 10.7 9.9165 13.8713 9.9165 17.7833C9.9165 21.6954 13.0878 24.8667 16.9998 24.8667Z" fill="white"/>
</mask>
<g mask="url(#mask20_17_3022)">
<path d="M16.1216 16.8908L15.8052 17.0572L15.8656 16.7048L15.6096 16.4553L15.9634 16.4039L16.1216 16.0833L16.2798 16.4039L16.6336 16.4553L16.3776 16.7048L16.438 17.0572L16.1216 16.8908Z" fill="#F7FCFF"/>
</g>
<mask id="mask21_17_3022" style="mask-type:alpha" maskUnits="userSpaceOnUse" x="9" y="10" width="16" height="15">
<path d="M16.9998 24.8667C20.9119 24.8667 24.0832 21.6954 24.0832 17.7833C24.0832 13.8713 20.9119 10.7 16.9998 10.7C13.0878 10.7 9.9165 13.8713 9.9165 17.7833C9.9165 21.6954 13.0878 24.8667 16.9998 24.8667Z" fill="white"/>
</mask>
<g mask="url(#mask21_17_3022)">
<path d="M16.1216 19.7242L15.8052 19.8905L15.8656 19.5382L15.6096 19.2886L15.9634 19.2372L16.1216 18.9167L16.2798 19.2372L16.6336 19.2886L16.3776 19.5382L16.438 19.8905L16.1216 19.7242Z" fill="#F7FCFF"/>
</g>
<mask id="mask22_17_3022" style="mask-type:alpha" maskUnits="userSpaceOnUse" x="9" y="10" width="16" height="15">
<path d="M16.9998 24.8667C20.9119 24.8667 24.0832 21.6954 24.0832 17.7833C24.0832 13.8713 20.9119 10.7 16.9998 10.7C13.0878 10.7 9.9165 13.8713 9.9165 17.7833C9.9165 21.6954 13.0878 24.8667 16.9998 24.8667Z" fill="white"/>
</mask>
<g mask="url(#mask22_17_3022)">
<path d="M14.1382 18.3075L13.8218 18.4739L13.8822 18.1215L13.6262 17.872L13.98 17.8206L14.1382 17.5L14.2964 17.8206L14.6502 17.872L14.3942 18.1215L14.4546 18.4739L14.1382 18.3075Z" fill="#F7FCFF"/>
</g>
<mask id="mask23_17_3022" style="mask-type:alpha" maskUnits="userSpaceOnUse" x="9" y="10" width="16" height="15">
<path d="M16.9998 24.8667C20.9119 24.8667 24.0832 21.6954 24.0832 17.7833C24.0832 13.8713 20.9119 10.7 16.9998 10.7C13.0878 10.7 9.9165 13.8713 9.9165 17.7833C9.9165 21.6954 13.0878 24.8667 16.9998 24.8667Z" fill="white"/>
</mask>
<g mask="url(#mask23_17_3022)">
<path d="M12.1548 19.4408L11.8384 19.6072L11.8988 19.2548L11.6428 19.0053L11.9966 18.9539L12.1548 18.6333L12.313 18.9539L12.6668 19.0053L12.4108 19.2548L12.4712 19.6072L12.1548 19.4408Z" fill="#F7FCFF"/>
</g>
<mask id="mask24_17_3022" style="mask-type:alpha" maskUnits="userSpaceOnUse" x="9" y="10" width="16" height="15">
<path d="M16.9998 24.8667C20.9119 24.8667 24.0832 21.6954 24.0832 17.7833C24.0832 13.8713 20.9119 10.7 16.9998 10.7C13.0878 10.7 9.9165 13.8713 9.9165 17.7833C9.9165 21.6954 13.0878 24.8667 16.9998 24.8667Z" fill="white"/>
</mask>
<g mask="url(#mask24_17_3022)">
<path d="M18.6717 14.6242L18.3552 14.7905L18.4157 14.4382L18.1597 14.1886L18.5134 14.1372L18.6717 13.8167L18.8299 14.1372L19.1836 14.1886L18.9276 14.4382L18.9881 14.7905L18.6717 14.6242Z" fill="#F7FCFF"/>
</g>
<mask id="mask25_17_3022" style="mask-type:alpha" maskUnits="userSpaceOnUse" x="9" y="10" width="16" height="15">
<path d="M16.9998 24.8667C20.9119 24.8667 24.0832 21.6954 24.0832 17.7833C24.0832 13.8713 20.9119 10.7 16.9998 10.7C13.0878 10.7 9.9165 13.8713 9.9165 17.7833C9.9165 21.6954 13.0878 24.8667 16.9998 24.8667Z" fill="white"/>
</mask>
<g mask="url(#mask25_17_3022)">
<path d="M8.39331 16.0793L8.60635 13.254C15.4034 13.7665 20.7682 16.0014 24.6331 19.9769L22.6016 21.9519C19.2518 18.5063 14.5382 16.5427 8.39331 16.0793Z" fill="#F7FCFF"/>
</g>
<mask id="mask26_17_3022" style="mask-type:alpha" maskUnits="userSpaceOnUse" x="9" y="10" width="16" height="15">
<path d="M16.9998 24.8667C20.9119 24.8667 24.0832 21.6954 24.0832 17.7833C24.0832 13.8713 20.9119 10.7 16.9998 10.7C13.0878 10.7 9.9165 13.8713 9.9165 17.7833C9.9165 21.6954 13.0878 24.8667 16.9998 24.8667Z" fill="white"/>
</mask>
<g mask="url(#mask26_17_3022)">
<path d="M11.7432 15.5206L11.8161 14.816C16.1978 15.2699 19.9561 16.9482 23.0797 19.8473L22.5979 20.3665C19.5879 17.5729 15.9735 15.9588 11.7432 15.5206Z" fill="#009933"/>
</g>
</g>
</g>
</g>
<mask id="mask27_17_3022" style="mask-type:alpha" maskUnits="userSpaceOnUse" x="-6" y="0" width="46" height="35">
<path d="M37.9666 0.5H-3.96675C-4.90563 0.5 -5.66675 1.26112 -5.66675 2.2V32.8C-5.66675 33.7389 -4.90563 34.5 -3.96675 34.5H37.9666C38.9055 34.5 39.6666 33.7389 39.6666 32.8V2.2C39.6666 1.26112 38.9055 0.5 37.9666 0.5Z" fill="white"/>
</mask>
<g mask="url(#mask27_17_3022)">
<path d="M37.2582 1.20833H-3.2585C-4.19738 1.20833 -4.9585 1.96945 -4.9585 2.90833V32.0917C-4.9585 33.0306 -4.19738 33.7917 -3.2585 33.7917H37.2582C38.197 33.7917 38.9582 33.0306 38.9582 32.0917V2.90833C38.9582 1.96945 38.197 1.20833 37.2582 1.20833Z" stroke="black" stroke-opacity="0.1"/>
</g>
</g>
</g>
<defs>
<linearGradient id="paint0_linear_17_3022" x1="16.9557" y1="29.076" x2="16.9557" y2="5.74739" gradientUnits="userSpaceOnUse">
<stop stop-color="#FFC600"/>
<stop offset="1" stop-color="#FFDE42"/>
</linearGradient>
<clipPath id="clip0_17_3022">
<rect width="34" height="34" fill="white" transform="translate(0 0.5)"/>
</clipPath>
</defs>
</svg>
