<svg width="22" height="22" viewBox="0 0 22 22" fill="none" xmlns="http://www.w3.org/2000/svg">
<path d="M13.7498 4.58331V6.41665" stroke="#8B909A" stroke-width="1.75" stroke-linecap="round" stroke-linejoin="round"/>
<path d="M13.7498 4.58331V6.41665" stroke="#8B909A" stroke-width="1.75" stroke-linecap="round" stroke-linejoin="round"/>
<path d="M13.7498 10.0833V11.9166" stroke="#8B909A" stroke-width="1.75" stroke-linecap="round" stroke-linejoin="round"/>
<path d="M13.7498 10.0833V11.9166" stroke="#8B909A" stroke-width="1.75" stroke-linecap="round" stroke-linejoin="round"/>
<path d="M13.7498 15.5833V17.4166" stroke="#8B909A" stroke-width="1.75" stroke-linecap="round" stroke-linejoin="round"/>
<path d="M13.7498 15.5833V17.4166" stroke="#8B909A" stroke-width="1.75" stroke-linecap="round" stroke-linejoin="round"/>
<path d="M4.58333 4.58331H17.4167C18.4292 4.58331 19.25 5.40412 19.25 6.41665V9.16665C18.2375 9.16665 17.4167 9.98746 17.4167 11C17.4167 12.0125 18.2375 12.8333 19.25 12.8333V15.5833C19.25 16.5958 18.4292 17.4166 17.4167 17.4166H4.58333C3.57081 17.4166 2.75 16.5958 2.75 15.5833V12.8333C3.76252 12.8333 4.58333 12.0125 4.58333 11C4.58333 9.98746 3.76252 9.16665 2.75 9.16665V6.41665C2.75 5.40412 3.57081 4.58331 4.58333 4.58331" stroke="#8B909A" stroke-width="1.75" stroke-linecap="round" stroke-linejoin="round"/>
<path d="M4.58333 4.58331H17.4167C18.4292 4.58331 19.25 5.40412 19.25 6.41665V9.16665C18.2375 9.16665 17.4167 9.98746 17.4167 11C17.4167 12.0125 18.2375 12.8333 19.25 12.8333V15.5833C19.25 16.5958 18.4292 17.4166 17.4167 17.4166H4.58333C3.57081 17.4166 2.75 16.5958 2.75 15.5833V12.8333C3.76252 12.8333 4.58333 12.0125 4.58333 11C4.58333 9.98746 3.76252 9.16665 2.75 9.16665V6.41665C2.75 5.40412 3.57081 4.58331 4.58333 4.58331" stroke="#8B909A" stroke-width="1.75" stroke-linecap="round" stroke-linejoin="round"/>
</svg>
