<svg width="22" height="22" viewBox="0 0 22 22" fill="none" xmlns="http://www.w3.org/2000/svg">
<path d="M13.7503 4.58337V6.41671" stroke="#23272E" stroke-width="1.75" stroke-linecap="round" stroke-linejoin="round"/>
<path d="M13.7503 4.58337V6.41671" stroke="#23272E" stroke-width="1.75" stroke-linecap="round" stroke-linejoin="round"/>
<path d="M13.7503 10.0834V11.9167" stroke="#23272E" stroke-width="1.75" stroke-linecap="round" stroke-linejoin="round"/>
<path d="M13.7503 10.0834V11.9167" stroke="#23272E" stroke-width="1.75" stroke-linecap="round" stroke-linejoin="round"/>
<path d="M13.7503 15.5834V17.4167" stroke="#23272E" stroke-width="1.75" stroke-linecap="round" stroke-linejoin="round"/>
<path d="M13.7503 15.5834V17.4167" stroke="#23272E" stroke-width="1.75" stroke-linecap="round" stroke-linejoin="round"/>
<path d="M4.58333 4.58337H17.4167C18.4292 4.58337 19.25 5.40419 19.25 6.41671V9.16671C18.2375 9.16671 17.4167 9.98752 17.4167 11C17.4167 12.0126 18.2375 12.8334 19.25 12.8334V15.5834C19.25 16.5959 18.4292 17.4167 17.4167 17.4167H4.58333C3.57081 17.4167 2.75 16.5959 2.75 15.5834V12.8334C3.76252 12.8334 4.58333 12.0126 4.58333 11C4.58333 9.98752 3.76252 9.16671 2.75 9.16671V6.41671C2.75 5.40419 3.57081 4.58337 4.58333 4.58337" stroke="#23272E" stroke-width="1.75" stroke-linecap="round" stroke-linejoin="round"/>
<path d="M4.58333 4.58337H17.4167C18.4292 4.58337 19.25 5.40419 19.25 6.41671V9.16671C18.2375 9.16671 17.4167 9.98752 17.4167 11C17.4167 12.0126 18.2375 12.8334 19.25 12.8334V15.5834C19.25 16.5959 18.4292 17.4167 17.4167 17.4167H4.58333C3.57081 17.4167 2.75 16.5959 2.75 15.5834V12.8334C3.76252 12.8334 4.58333 12.0126 4.58333 11C4.58333 9.98752 3.76252 9.16671 2.75 9.16671V6.41671C2.75 5.40419 3.57081 4.58337 4.58333 4.58337" stroke="#23272E" stroke-width="1.75" stroke-linecap="round" stroke-linejoin="round"/>
</svg>
