<svg width="16" height="16" viewBox="0 0 16 16" fill="none" xmlns="http://www.w3.org/2000/svg">
<path d="M7.99998 2.94998C8.08887 2.94998 8.17221 2.96376 8.24998 2.99131C8.32776 3.01887 8.39998 3.0662 8.46665 3.13331L12.8667 7.53331C13 7.66665 13.0667 7.82487 13.0667 8.00798C13.0667 8.19109 13 8.34954 12.8667 8.48331C12.7333 8.61665 12.5778 8.68331 12.4 8.68331C12.2222 8.68331 12.0667 8.61665 11.9333 8.48331L8.66665 5.21665L8.66665 12.6833C8.66665 12.8722 8.60265 13.0278 8.47465 13.15C8.34665 13.2722 8.18843 13.3333 7.99998 13.3333C7.81109 13.3333 7.65265 13.2693 7.52465 13.1413C7.39665 13.0133 7.33287 12.8551 7.33332 12.6666L7.33332 5.21665L4.06665 8.48331C3.93332 8.61665 3.77776 8.68331 3.59998 8.68331C3.42221 8.68331 3.26665 8.61665 3.13332 8.48331C2.99998 8.34998 2.93332 8.19153 2.93332 8.00798C2.93332 7.82442 2.99998 7.6662 3.13332 7.53331L7.53332 3.13331C7.59999 3.06665 7.67221 3.01931 7.74998 2.99131C7.82776 2.96331 7.9111 2.94953 7.99998 2.94998Z" fill="#1EB564"/>
</svg>
