<svg width="24" height="24" viewBox="0 0 24 24" fill="none" xmlns="http://www.w3.org/2000/svg">
<path d="M12.35 9.35C12.25 9.25 12.1333 9.2 12 9.2C11.8667 9.2 11.75 9.25 11.65 9.35L8.85 12.15C8.68333 12.3167 8.64167 12.5 8.725 12.7C8.80833 12.9 8.96667 13 9.2 13L14.8 13C15.0333 13 15.1917 12.9 15.275 12.7C15.3583 12.5 15.3167 12.3167 15.15 12.15L12.35 9.35ZM12 2C13.3833 2 14.6833 2.26267 15.9 2.788C17.1167 3.31333 18.175 4.02566 19.075 4.925C19.975 5.825 20.6873 6.88333 21.212 8.1C21.7367 9.31667 21.9993 10.6167 22 12C22 13.3833 21.7373 14.6833 21.212 15.9C20.6867 17.1167 19.9743 18.175 19.075 19.075C18.175 19.975 17.1167 20.6873 15.9 21.212C14.6833 21.7367 13.3833 21.9993 12 22C10.6167 22 9.31667 21.7373 8.1 21.212C6.88333 20.6867 5.825 19.9743 4.925 19.075C4.025 18.175 3.31233 17.1167 2.787 15.9C2.26167 14.6833 1.99933 13.3833 2 12C2 10.6167 2.26267 9.31667 2.788 8.1C3.31333 6.88333 4.02567 5.825 4.925 4.925C5.825 4.025 6.88333 3.31233 8.1 2.787C9.31667 2.26167 10.6167 1.99933 12 2ZM12 4C9.78333 4 7.89567 4.779 6.337 6.337C4.77833 7.895 3.99933 9.78267 4 12C4 14.2167 4.779 16.1043 6.337 17.663C7.895 19.2217 9.78267 20.0007 12 20C14.2167 20 16.1043 19.221 17.663 17.663C19.2217 16.105 20.0007 14.2173 20 12C20 9.78333 19.221 7.89567 17.663 6.337C16.105 4.77833 14.2173 3.99933 12 4Z" fill="#23272E"/>
</svg>
