<svg width="34" height="35" viewBox="0 0 34 35" fill="none" xmlns="http://www.w3.org/2000/svg">
<g filter="url(#filter0_d_17_2992)">
<mask id="mask0_17_2992" style="mask-type:alpha" maskUnits="userSpaceOnUse" x="0" y="0" width="34" height="35">
<path d="M17 34.5C26.3888 34.5 34 26.8888 34 17.5C34 8.11116 26.3888 0.5 17 0.5C7.61116 0.5 0 8.11116 0 17.5C0 26.8888 7.61116 34.5 17 34.5Z" fill="white"/>
</mask>
<g mask="url(#mask0_17_2992)">
<mask id="mask1_17_2992" style="mask-type:alpha" maskUnits="userSpaceOnUse" x="-6" y="0" width="46" height="35">
<path d="M39.1 0.5H-5.94995V34.5H39.1V0.5Z" fill="white"/>
</mask>
<g mask="url(#mask1_17_2992)">
<path fill-rule="evenodd" clip-rule="evenodd" d="M-5.94995 0.5H39.1V34.5H-5.94995V0.5Z" fill="#F7FCFF"/>
<path d="M39.1 21.2778H-5.94995V24.1111H39.1V21.2778Z" fill="#E31D1C"/>
<path d="M39.1 26.4722H-5.94995V29.3056H39.1V26.4722Z" fill="#E31D1C"/>
<path d="M39.1 10.8889H-5.94995V13.7222H39.1V10.8889Z" fill="#E31D1C"/>
<path d="M39.1 31.6667H-5.94995V34.5H39.1V31.6667Z" fill="#E31D1C"/>
<path d="M39.1 16.0833H-5.94995V18.9167H39.1V16.0833Z" fill="#E31D1C"/>
<path d="M39.1 0.5H-5.94995V3.33333H39.1V0.5Z" fill="#E31D1C"/>
<path d="M39.1 5.69444H-5.94995V8.52778H39.1V5.69444Z" fill="#E31D1C"/>
<path d="M22.2063 0.5H-5.94995V18.9167H22.2063V0.5Z" fill="#2E42A5"/>
<path fill-rule="evenodd" clip-rule="evenodd" d="M-3.527 13.5744L-3.06077 14.6214H-2.05017L-2.84422 15.4344L-2.53681 16.7174L-3.52557 15.9964L-4.54747 16.7174L-4.20247 15.4344L-5.11011 14.6214H-3.92461L-3.527 13.5744ZM2.10425 13.5744L2.57048 14.6214H3.58108L2.78703 15.4344L3.09444 16.7174L2.10568 15.9964L1.08378 16.7174L1.42878 15.4344L0.521142 14.6214H1.70664L2.10425 13.5744ZM7.7355 13.5744L8.20173 14.6214H9.21233L8.41828 15.4344L8.72569 16.7174L7.73693 15.9964L6.71503 16.7174L7.06003 15.4344L6.15239 14.6214H7.33789L7.7355 13.5744ZM13.3667 13.5744L13.833 14.6214H14.8436L14.0495 15.4344L14.3569 16.7174L13.3682 15.9964L12.3463 16.7174L12.6913 15.4344L11.7836 14.6214H12.9691L13.3667 13.5744ZM18.998 13.5744L19.4642 14.6214H20.4748L19.6808 15.4344L19.9882 16.7174L18.9994 15.9964L17.9775 16.7174L18.3225 15.4344L17.4149 14.6214H18.6004L18.998 13.5744ZM-0.711374 10.741L-0.245147 11.7881H0.765459L-0.0285979 12.6011L0.278814 13.884L-0.709946 13.1631L-1.73185 13.884L-1.38684 12.6011L-2.29448 11.7881H-1.10898L-0.711374 10.741ZM4.91987 10.741L5.3861 11.7881H6.39671L5.60265 12.6011L5.91006 13.884L4.9213 13.1631L3.8994 13.884L4.24441 12.6011L3.33677 11.7881H4.52227L4.91987 10.741ZM10.5511 10.741L11.0174 11.7881H12.028L11.2339 12.6011L11.5413 13.884L10.5526 13.1631L9.53065 13.884L9.87566 12.6011L8.96802 11.7881H10.1535L10.5511 10.741ZM16.1824 10.741L16.6486 11.7881H17.6592L16.8651 12.6011L17.1726 13.884L16.1838 13.1631L15.1619 13.884L15.5069 12.6011L14.5993 11.7881H15.7848L16.1824 10.741ZM7.7355 7.9077L8.20173 8.95472H9.21233L8.41828 9.76776L8.72569 11.0507L7.73693 10.3298L6.71503 11.0507L7.06003 9.76776L6.15239 8.95472H7.33789L7.7355 7.9077ZM13.3667 7.9077L13.833 8.95472H14.8436L14.0495 9.76776L14.3569 11.0507L13.3682 10.3298L12.3463 11.0507L12.6913 9.76776L11.7836 8.95472H12.9691L13.3667 7.9077ZM-3.527 7.9077L-3.06077 8.95472H-2.05017L-2.84422 9.76776L-2.53681 11.0507L-3.52557 10.3298L-4.54747 11.0507L-4.20247 9.76776L-5.11011 8.95472H-3.92461L-3.527 7.9077ZM2.10425 7.9077L2.57048 8.95472H3.58108L2.78703 9.76776L3.09444 11.0507L2.10568 10.3298L1.08378 11.0507L1.42878 9.76776L0.521142 8.95472H1.70664L2.10425 7.9077ZM18.998 7.9077L19.4642 8.95472H20.4748L19.6808 9.76776L19.9882 11.0507L18.9994 10.3298L17.9775 11.0507L18.3225 9.76776L17.4149 8.95472H18.6004L18.998 7.9077ZM-0.711374 5.07437L-0.245147 6.12138H0.765459L-0.0285979 6.93443L0.278814 8.21737L-0.709946 7.49645L-1.73185 8.21737L-1.38684 6.93443L-2.29448 6.12138H-1.10898L-0.711374 5.07437ZM4.91987 5.07437L5.3861 6.12138H6.39671L5.60265 6.93443L5.91006 8.21737L4.9213 7.49645L3.8994 8.21737L4.24441 6.93443L3.33677 6.12138H4.52227L4.91987 5.07437ZM10.5511 5.07437L11.0174 6.12138H12.028L11.2339 6.93443L11.5413 8.21737L10.5526 7.49645L9.53065 8.21737L9.87566 6.93443L8.96802 6.12138H10.1535L10.5511 5.07437ZM16.1824 5.07437L16.6486 6.12138H17.6592L16.8651 6.93443L17.1726 8.21737L16.1838 7.49645L15.1619 8.21737L15.5069 6.93443L14.5993 6.12138H15.7848L16.1824 5.07437ZM-3.527 2.24104L-3.06077 3.28805H-2.05017L-2.84422 4.10109L-2.53681 5.38404L-3.52557 4.66311L-4.54747 5.38404L-4.20247 4.10109L-5.11011 3.28805H-3.92461L-3.527 2.24104ZM2.10425 2.24104L2.57048 3.28805H3.58108L2.78703 4.10109L3.09444 5.38404L2.10568 4.66311L1.08378 5.38404L1.42878 4.10109L0.521142 3.28805H1.70664L2.10425 2.24104ZM7.7355 2.24104L8.20173 3.28805H9.21233L8.41828 4.10109L8.72569 5.38404L7.73693 4.66311L6.71503 5.38404L7.06003 4.10109L6.15239 3.28805H7.33789L7.7355 2.24104ZM13.3667 2.24104L13.833 3.28805H14.8436L14.0495 4.10109L14.3569 5.38404L13.3682 4.66311L12.3463 5.38404L12.6913 4.10109L11.7836 3.28805H12.9691L13.3667 2.24104ZM18.998 2.24104L19.4642 3.28805H20.4748L19.6808 4.10109L19.9882 5.38404L18.9994 4.66311L17.9775 5.38404L18.3225 4.10109L17.4149 3.28805H18.6004L18.998 2.24104Z" fill="#F7FCFF"/>
</g>
</g>
</g>
<defs>
<filter id="filter0_d_17_2992" x="-4" y="0.5" width="42" height="42" filterUnits="userSpaceOnUse" color-interpolation-filters="sRGB">
<feFlood flood-opacity="0" result="BackgroundImageFix"/>
<feColorMatrix in="SourceAlpha" type="matrix" values="0 0 0 0 0 0 0 0 0 0 0 0 0 0 0 0 0 0 127 0" result="hardAlpha"/>
<feOffset dy="4"/>
<feGaussianBlur stdDeviation="2"/>
<feComposite in2="hardAlpha" operator="out"/>
<feColorMatrix type="matrix" values="0 0 0 0 0 0 0 0 0 0 0 0 0 0 0 0 0 0 0.25 0"/>
<feBlend mode="normal" in2="BackgroundImageFix" result="effect1_dropShadow_17_2992"/>
<feBlend mode="normal" in="SourceGraphic" in2="effect1_dropShadow_17_2992" result="shape"/>
</filter>
</defs>
</svg>
