<svg width="22" height="22" viewBox="0 0 22 22" fill="none" xmlns="http://www.w3.org/2000/svg">
<path d="M12.833 2.75V6.41667C12.833 6.92293 13.2434 7.33333 13.7497 7.33333H17.4163" stroke="#23272E" stroke-width="1.75" stroke-linecap="round" stroke-linejoin="round"/>
<path d="M12.833 2.75V6.41667C12.833 6.92293 13.2434 7.33333 13.7497 7.33333H17.4163" stroke="#23272E" stroke-width="1.75" stroke-linecap="round" stroke-linejoin="round"/>
<path fill-rule="evenodd" clip-rule="evenodd" d="M15.583 19.25H6.41634C5.40382 19.25 4.58301 18.4292 4.58301 17.4167V4.58333C4.58301 3.57081 5.40382 2.75 6.41634 2.75H12.833L17.4163 7.33333V17.4167C17.4163 18.4292 16.5955 19.25 15.583 19.25Z" stroke="#23272E" stroke-width="1.75" stroke-linecap="round" stroke-linejoin="round"/>
<path fill-rule="evenodd" clip-rule="evenodd" d="M15.583 19.25H6.41634C5.40382 19.25 4.58301 18.4292 4.58301 17.4167V4.58333C4.58301 3.57081 5.40382 2.75 6.41634 2.75H12.833L17.4163 7.33333V17.4167C17.4163 18.4292 16.5955 19.25 15.583 19.25Z" stroke="#23272E" stroke-width="1.75" stroke-linecap="round" stroke-linejoin="round"/>
<path d="M8.25 8.24996H9.16667" stroke="#23272E" stroke-width="1.75" stroke-linecap="round" stroke-linejoin="round"/>
<path d="M8.25 8.24996H9.16667" stroke="#23272E" stroke-width="1.75" stroke-linecap="round" stroke-linejoin="round"/>
<path d="M8.25 11.9167H13.75" stroke="#23272E" stroke-width="1.75" stroke-linecap="round" stroke-linejoin="round"/>
<path d="M8.25 11.9167H13.75" stroke="#23272E" stroke-width="1.75" stroke-linecap="round" stroke-linejoin="round"/>
<path d="M8.25 15.5833H13.75" stroke="#23272E" stroke-width="1.75" stroke-linecap="round" stroke-linejoin="round"/>
<path d="M8.25 15.5833H13.75" stroke="#23272E" stroke-width="1.75" stroke-linecap="round" stroke-linejoin="round"/>
</svg>
