<svg width="22" height="22" viewBox="0 0 22 22" fill="none" xmlns="http://www.w3.org/2000/svg">
<path d="M12.8335 2.75V6.41667C12.8335 6.92293 13.2439 7.33333 13.7502 7.33333H17.4168" stroke="#8B909A" stroke-width="1.75" stroke-linecap="round" stroke-linejoin="round"/>
<path d="M12.8335 2.75V6.41667C12.8335 6.92293 13.2439 7.33333 13.7502 7.33333H17.4168" stroke="#8B909A" stroke-width="1.75" stroke-linecap="round" stroke-linejoin="round"/>
<path fill-rule="evenodd" clip-rule="evenodd" d="M15.5835 19.25H6.41683C5.40431 19.25 4.5835 18.4292 4.5835 17.4167V4.58333C4.5835 3.57081 5.40431 2.75 6.41683 2.75H12.8335L17.4168 7.33333V17.4167C17.4168 18.4292 16.596 19.25 15.5835 19.25Z" stroke="#8B909A" stroke-width="1.75" stroke-linecap="round" stroke-linejoin="round"/>
<path fill-rule="evenodd" clip-rule="evenodd" d="M15.5835 19.25H6.41683C5.40431 19.25 4.5835 18.4292 4.5835 17.4167V4.58333C4.5835 3.57081 5.40431 2.75 6.41683 2.75H12.8335L17.4168 7.33333V17.4167C17.4168 18.4292 16.596 19.25 15.5835 19.25Z" stroke="#8B909A" stroke-width="1.75" stroke-linecap="round" stroke-linejoin="round"/>
<path d="M8.25 8.24999H9.16667" stroke="#8B909A" stroke-width="1.75" stroke-linecap="round" stroke-linejoin="round"/>
<path d="M8.25 8.24999H9.16667" stroke="#8B909A" stroke-width="1.75" stroke-linecap="round" stroke-linejoin="round"/>
<path d="M8.25 11.9167H13.75" stroke="#8B909A" stroke-width="1.75" stroke-linecap="round" stroke-linejoin="round"/>
<path d="M8.25 11.9167H13.75" stroke="#8B909A" stroke-width="1.75" stroke-linecap="round" stroke-linejoin="round"/>
<path d="M8.25 15.5833H13.75" stroke="#8B909A" stroke-width="1.75" stroke-linecap="round" stroke-linejoin="round"/>
<path d="M8.25 15.5833H13.75" stroke="#8B909A" stroke-width="1.75" stroke-linecap="round" stroke-linejoin="round"/>
</svg>
