<svg width="16" height="16" viewBox="0 0 16 16" fill="none" xmlns="http://www.w3.org/2000/svg">
<path d="M8.00002 13.05C7.91113 13.05 7.82779 13.0362 7.75002 13.0087C7.67224 12.9811 7.60002 12.9338 7.53335 12.8667L3.13335 8.46669C3.00002 8.33335 2.93335 8.17513 2.93335 7.99202C2.93335 7.80891 3.00002 7.65046 3.13335 7.51669C3.26668 7.38335 3.42224 7.31669 3.60002 7.31669C3.77779 7.31669 3.93335 7.38335 4.06668 7.51669L7.33335 10.7834L7.33335 3.31669C7.33335 3.1278 7.39735 2.97224 7.52535 2.85002C7.65335 2.7278 7.81157 2.66669 8.00002 2.66669C8.18891 2.66669 8.34735 2.73069 8.47535 2.85869C8.60335 2.98669 8.66713 3.14491 8.66668 3.33335V10.7834L11.9333 7.51669C12.0667 7.38335 12.2222 7.31669 12.4 7.31669C12.5778 7.31669 12.7333 7.38335 12.8667 7.51669C13 7.65002 13.0667 7.80846 13.0667 7.99202C13.0667 8.17558 13 8.3338 12.8667 8.46669L8.46668 12.8667C8.40002 12.9334 8.32779 12.9807 8.25002 13.0087C8.17224 13.0367 8.08891 13.0505 8.00002 13.05Z" fill="#D02626"/>
</svg>
